<?xml version="1.0" encoding="UTF-8" standalone="no"?>
<!-- Created with Inkscape (http://www.inkscape.org/) -->

<svg
   xmlns:dc="http://purl.org/dc/elements/1.1/"
   xmlns:cc="http://creativecommons.org/ns#"
   xmlns:rdf="http://www.w3.org/1999/02/22-rdf-syntax-ns#"
   xmlns:svg="http://www.w3.org/2000/svg"
   xmlns="http://www.w3.org/2000/svg"
   xmlns:sodipodi="http://sodipodi.sourceforge.net/DTD/sodipodi-0.dtd"
   xmlns:inkscape="http://www.inkscape.org/namespaces/inkscape"
   width="210mm"
   height="297mm"
   viewBox="0 0 210 297"
   version="1.1"
   id="svg8"
   inkscape:version="0.92.3 (unknown)"
   sodipodi:docname="logo.svg">
  <defs
     id="defs2" />
  <sodipodi:namedview
     id="base"
     pagecolor="#ffffff"
     bordercolor="#666666"
     borderopacity="1.0"
     inkscape:pageopacity="0.0"
     inkscape:pageshadow="2"
     inkscape:zoom="0.35"
     inkscape:cx="-199.63585"
     inkscape:cy="588.19333"
     inkscape:document-units="mm"
     inkscape:current-layer="layer1"
     showgrid="false"
     inkscape:window-width="1366"
     inkscape:window-height="714"
     inkscape:window-x="0"
     inkscape:window-y="23"
     inkscape:window-maximized="1" />
  <metadata
     id="metadata5">
    <rdf:RDF>
      <cc:Work
         rdf:about="">
        <dc:format>image/svg+xml</dc:format>
        <dc:type
           rdf:resource="http://purl.org/dc/dcmitype/StillImage" />
        <dc:title />
      </cc:Work>
    </rdf:RDF>
  </metadata>
  <g
     inkscape:label="Camada 1"
     inkscape:groupmode="layer"
     id="layer1">
    <path
       style="fill:#000000;stroke:#000000;stroke-width:0.80067033"
       d="m 103.07737,34.03372 a 86.541506,88.159109 0 0 0 -86.542769,88.15975 86.541506,88.159109 0 0 0 86.542769,88.15818 86.541506,88.159109 0 0 0 86.54121,-88.15818 86.541506,88.159109 0 0 0 -86.54121,-88.15975 z m 0.21268,28.178267 a 57.381895,60.813338 0 0 1 57.38242,60.813433 57.381895,60.813338 0 0 1 -13.90382,39.64256 l 4.87595,22.61111 -24.2969,-7.12158 a 57.381895,60.813338 0 0 1 -24.05765,5.68131 57.381895,60.813338 0 0 1 -57.382416,-60.8134 57.381895,60.813338 0 0 1 57.382416,-60.813433 z"
       id="path815"
       inkscape:connector-curvature="0" />
    <path
       style="fill:#000000;stroke:#000000;stroke-width:0.80067033px;stroke-linecap:butt;stroke-linejoin:miter;stroke-opacity:1"
       d="m 137.73786,196.94837 33.17064,9.72244 -6.29098,-29.1673 z"
       id="path886"
       inkscape:connector-curvature="0"
       sodipodi:nodetypes="cccc" />
  </g>
</svg>
